<svg id="Layer_1" data-name="Layer 1" xmlns="http://www.w3.org/2000/svg" viewBox="0 0 1080 175.43"><defs><style>.cls-1{fill:#2b97e0;}</style></defs><polygon class="cls-1" points="84.22 137.83 31.75 16.22 0 16.22 68.92 173.86 97.73 173.86 166.43 16.22 137.15 16.22 84.22 137.83"/><rect class="cls-1" x="177.79" y="53.6" width="28.15" height="120.26"/><path class="cls-1" d="M204.81,4.62A18.57,18.57,0,0,0,192,0a18.07,18.07,0,0,0-12.84,4.85,15.79,15.79,0,0,0-5.18,12,15.79,15.79,0,0,0,5.18,12.05A18.06,18.06,0,0,0,192,33.78a17.54,17.54,0,0,0,12.94-5.06A17,17,0,0,0,210,16.22,14.9,14.9,0,0,0,204.81,4.62Z"/><path class="cls-1" d="M322.05,68.46A44.15,44.15,0,0,0,305.16,56.3a57.25,57.25,0,0,0-21.85-4,63.33,63.33,0,0,0-31.19,7.66,55.23,55.23,0,0,0-21.73,21.62q-7.89,14-7.88,32.2t7.88,32.32a55.05,55.05,0,0,0,21.73,21.73,63.44,63.44,0,0,0,31.19,7.65A58.28,58.28,0,0,0,306,171.16a43.44,43.44,0,0,0,17.22-12.84v15.54h27V6.76H322.05Zm-4.28,65.09a33.29,33.29,0,0,1-12.84,13.17,38.32,38.32,0,0,1-36.48,0,33.42,33.42,0,0,1-12.84-13.17,40.35,40.35,0,0,1-4.73-19.82,40.35,40.35,0,0,1,4.73-19.82,33.49,33.49,0,0,1,12.84-13.17,38.32,38.32,0,0,1,36.48,0,33.36,33.36,0,0,1,12.84,13.17,40.35,40.35,0,0,1,4.73,19.82A40.35,40.35,0,0,1,317.77,133.55Z"/><path class="cls-1" d="M461,60q-13.84-7.77-31.41-7.77a64.76,64.76,0,0,0-32,7.88,56.79,56.79,0,0,0-22.19,22,62.91,62.91,0,0,0-8,31.64,62,62,0,0,0,8.22,31.87,56.74,56.74,0,0,0,23.31,22q15.07,7.89,34.9,7.88a74.74,74.74,0,0,0,27.93-5,50.78,50.78,0,0,0,20.49-14.64L467.14,138.5q-12.83,13.06-32.65,13.06-15.54,0-26-7.77a32.69,32.69,0,0,1-13-21h94.36c.3-3.61.45-6.38.45-8.33q0-18.47-7.77-32.55A55.06,55.06,0,0,0,461,60Zm-65.65,44q2-13.29,11.38-21.29t22.86-8q13.72,0,23,8.11t11,21.17Z"/><path class="cls-1" d="M596.09,60.13q-14.64-7.87-33.1-7.88a68.29,68.29,0,0,0-32.88,7.88A57.74,57.74,0,0,0,507.25,82q-8.22,14-8.22,31.75a62,62,0,0,0,8.22,31.87,57.44,57.44,0,0,0,22.86,22A68.18,68.18,0,0,0,563,175.43q18.46,0,33.1-7.88a57.44,57.44,0,0,0,22.86-22,62,62,0,0,0,8.22-31.87q0-17.79-8.22-31.75A57.74,57.74,0,0,0,596.09,60.13Zm3.76,55.57-1.13.65-51,29.47a3.74,3.74,0,0,1-5.6-3.23V82.34a3.73,3.73,0,0,1,5.6-3.23l.09,0,50.75,29.3,1.33.77A3.74,3.74,0,0,1,599.85,115.7Z"/><path class="cls-1" d="M692.29,152.24q-8.1,0-12.38-4.62t-4.28-13.4V77h32.2V54.5h-32.2V27H647.48V54.5H627.66V77h19.82V134.9q0,19.82,10.81,30.18t30.63,10.35a54.29,54.29,0,0,0,15-2,33.14,33.14,0,0,0,12.05-6.08l-7.88-20.05Q701.75,152.25,692.29,152.24Z"/><path class="cls-1" d="M808.43,60Q794.59,52.25,777,52.25a64.72,64.72,0,0,0-32,7.88,56.79,56.79,0,0,0-22.19,22,62.91,62.91,0,0,0-8,31.64,62,62,0,0,0,8.22,31.87,56.74,56.74,0,0,0,23.31,22q15.08,7.89,34.9,7.88a74.74,74.74,0,0,0,27.93-5,50.78,50.78,0,0,0,20.49-14.64L814.62,138.5Q801.8,151.57,782,151.56q-15.54,0-26-7.77a32.69,32.69,0,0,1-13-21h94.36c.3-3.61.45-6.38.45-8.33q0-18.47-7.77-32.55A55.06,55.06,0,0,0,808.43,60Zm-65.65,44q2-13.29,11.38-21.29t22.85-8q13.74,0,23,8.11t11,21.17Z"/><path class="cls-1" d="M911.37,76.12a35.39,35.39,0,0,1,17,4.17,34.37,34.37,0,0,1,13,12.5l21.62-12.62a46.81,46.81,0,0,0-20.16-20.71q-13.39-7.22-31.19-7.21-18.92,0-33.67,7.88A58.33,58.33,0,0,0,854.84,82q-8.33,14-8.33,31.75a61.44,61.44,0,0,0,8.33,31.87,57.82,57.82,0,0,0,23.2,22q14.87,7.89,33.55,7.88,17.56,0,31-7.31a48.79,48.79,0,0,0,20.38-20.84l-21.62-12.61a34.3,34.3,0,0,1-13,12.5,35.39,35.39,0,0,1-17,4.17q-16,0-26.24-10.25t-10.25-27.36q0-17.12,10.36-27.36T911.37,76.12Z"/><path class="cls-1" d="M1065.92,65q-14.07-12.72-40.65-12.72a101.29,101.29,0,0,0-28.15,3.83,68.26,68.26,0,0,0-22.74,11l11,20.5A49.23,49.23,0,0,1,1002,78.82a64.75,64.75,0,0,1,19.93-3.15q14.86,0,22.41,6.76t7.55,19.36v1.81h-31.08q-25.9,0-37.95,9.79t-12.05,26A32.56,32.56,0,0,0,976.29,158a36.6,36.6,0,0,0,15.65,12.84q10.14,4.6,23.65,4.61t23.08-4.16a32.72,32.72,0,0,0,14.75-12.05v14.64H1080V103.37Q1080,77.69,1065.92,65Zm-14.07,71.28a26.37,26.37,0,0,1-11.6,13.85,36.34,36.34,0,0,1-18.81,4.84q-10.8,0-16.89-4.5a14.36,14.36,0,0,1-6.08-12.16q0-16,24.33-16h29Z"/></svg>